<?xml version="1.0" encoding="UTF-8"?>
<svg id="Layer_2" data-name="Layer 2" xmlns="http://www.w3.org/2000/svg" viewBox="0 0 2269.52 502.95">
  <defs>
    <style>
      .cls-1 {
        fill: #fff;
      }

      .cls-2 {
        fill: #0c202c;
      }

      .cls-3 {
        fill: #c8272b;
      }

      .cls-4 {
        fill: #0b2b4a;
      }

      .cls-5 {
        fill: #f04b3e;
      }
    </style>
  </defs>
  <g id="Layer_1-2" data-name="Layer 1">
    <g>
      <g>
        <path class="cls-5" d="M613.22,455.79c-24.82,2.44-49.43,6.13-74.65,3.47-44.74-4.73-83.38-22.67-117.84-50.62-9.5-7.7-18.66-15.82-27.97-23.75-21.85-23.6-46.48-44.28-69.95-66.19-27.07-25.01-54.12-50.04-81.22-75.02-31.31-28.87-62.66-57.69-94-86.53,38.74-28.25,79.85-27.92,122.46-10.24,14.34,5.95,25.47,16.34,36.61,26.55,59.58,54.57,118.49,109.88,178.65,163.82,39.91,35.79,103.62,36.85,146.57,4.63,18.73-12.82,32.15-29.73,41.24-50.56,21.37-48.98,8.1-105.03-33.99-141.05-39.1-33.47-99.23-36.6-143.26-7.76-15.62,10.23-27.11,24.73-40.44,37.33-23.27-21.63-48.01-41.69-69.48-65.23,31.83-39.99,71.81-67.38,121.61-81.07,78.25-21.51,173.04,8.93,222.77,72.71,71.95,92.28,64.16,212.99-19.04,295.38-2.3,2.28-4.41,4.75-6.61,7.14-28,20.49-57.92,37.25-91.46,47.01Z"/>
        <path class="cls-2" d="M613.22,455.79c33.55-9.76,63.47-26.52,91.46-47.01,24.47,22.43,48.89,44.91,73.46,67.23,4.1,3.73,4.3,5.34-.85,8.71-41.01,26.87-101.94,23.8-140.22-7.68-8.22-6.76-15.91-14.15-23.85-21.25Z"/>
        <path class="cls-3" d="M164.2,43.62c-32.99,9.93-63.05,25.43-89.88,47.07C49.59,68.13,24.85,45.58,0,22.92,40.3-9.86,115.49-11.25,164.2,43.62Z"/>
        <path class="cls-3" d="M192.87,198.82s57.32-62.54,154.1,11.73l-99.85-95.52-85.97,1.57-27.07,9.29,13.51,31.27,45.28,41.66Z"/>
        <path class="cls-4" d="M385.96,114.63c21.47,23.53,46.21,43.6,69.48,65.23,3.7,3.76,7.23,7.71,11.12,11.26,55.08,50.29,110.21,100.53,165.32,150.79-42.95,32.22-106.66,31.16-146.57-4.63-60.15-53.94-119.06-109.25-178.65-163.82-11.14-10.2-22.26-20.59-36.61-26.55-42.61-17.68-83.72-18.01-122.46,10.24-18.95,11.99-31.49,29.22-41.05,49.09-21.34,44.4-11.04,99.48,25.82,136.61,33.67,33.92,91.01,43.25,134.58,22.86,23.05-10.79,38.85-29.46,55.88-47.01,23.46,21.91,48.1,42.58,69.95,66.19-21.65,25.39-45.58,47.98-75.93,63.05-66.05,32.79-132.48,34.51-198.41,.85-55.21-28.18-92.61-72.31-109.87-131.97-12.34-42.66-10.97-94,3.89-136.02,10.37-29.31,28.78-55,50.11-77.34,.34-.35,.69-.7,1.02-1.06,3.68-3.82,7.17-7.81,10.75-11.71,26.83-21.63,56.88-37.14,89.88-47.07,12.62-1.34,25.21-3.02,37.85-3.95,60.93-4.46,113.82,14.84,159.82,54.18,8.06,6.89,16.06,13.85,24.08,20.78Z"/>
        <path class="cls-2" d="M631.87,341.67c-42.96,32.22-106.67,31.16-146.57-4.64-13.92-12.47-27.75-25.02-41.55-37.61,90.26,58.47,141.72,.38,141.72,.38l45.97,40.89,.44,.98Z"/>
        <path class="cls-2" d="M392.74,385.04l-15.9,17.47-11.58,11.36-67.43-69.76,24.96-25.27c23.47,21.92,48.1,42.59,69.95,66.2,.12,.09-.12-.09,0,0Z"/>
        <path class="cls-3" d="M385.96,114.63l6.77-8.18,5.65-6.34,6.94-7.23,7.67-7.35,67.24,69.56-24.79,24.76c-23.47-21.92-47.47-41.23-69.32-64.83-.12-.09-.19-.2-.15-.4Z"/>
      </g>
      <g>
        <path class="cls-1" d="M833.23,123.82h109.93c26.27,0,49.49,5.01,69.65,15.04,20.16,10.02,35.83,24.14,47.01,42.35,11.18,18.21,16.76,39.41,16.76,63.61s-5.59,45.4-16.76,63.61c-11.18,18.21-26.85,32.32-47.01,42.35-20.17,10.02-43.38,15.04-69.65,15.04h-109.93V123.82Zm107.16,196c24.2,0,43.5-6.74,57.9-20.22,14.4-13.48,21.61-31.74,21.61-54.79s-7.21-41.31-21.61-54.79c-14.4-13.48-33.7-20.22-57.9-20.22h-51.16v150.02h51.16Z"/>
        <path class="cls-1" d="M1282.26,241h51.16v98.17c-13.14,9.91-28.35,17.52-45.63,22.81-17.28,5.3-34.69,7.95-52.2,7.95-25.12,0-47.7-5.36-67.75-16.07-20.05-10.72-35.78-25.58-47.19-44.59-11.41-19.01-17.11-40.5-17.11-64.47s5.7-45.46,17.11-64.47c11.41-19.01,27.25-33.88,47.53-44.59,20.28-10.72,43.09-16.07,68.44-16.07,21.2,0,40.44,3.58,57.73,10.72,17.28,7.15,31.8,17.52,43.56,31.11l-35.95,33.19c-17.28-18.2-38.14-27.31-62.57-27.31-15.44,0-29.16,3.23-41.14,9.68-11.99,6.45-21.32,15.56-28,27.31-6.69,11.75-10.03,25.23-10.03,40.44s3.34,28.35,10.03,40.1c6.68,11.75,15.95,20.91,27.83,27.48,11.87,6.57,25.41,9.85,40.62,9.85,16.13,0,30.65-3.46,43.56-10.37v-70.86Z"/>
        <path class="cls-1" d="M1522.85,197.62c15.44,13.71,23.16,34.4,23.16,62.05v106.12h-50.47v-23.16c-10.14,17.28-29.04,25.93-56.69,25.93-14.29,0-26.68-2.42-37.16-7.26-10.49-4.84-18.49-11.52-24.03-20.05-5.53-8.52-8.3-18.2-8.3-29.04,0-17.28,6.51-30.88,19.53-40.79,13.02-9.91,33.13-14.86,60.32-14.86h42.86c0-11.75-3.58-20.79-10.72-27.14-7.15-6.34-17.86-9.51-32.15-9.51-9.91,0-19.65,1.56-29.21,4.67-9.57,3.11-17.69,7.32-24.37,12.62l-19.36-37.68c10.14-7.14,22.3-12.67,36.47-16.59,14.17-3.92,28.75-5.88,43.73-5.88,28.8,0,50.93,6.86,66.37,20.57Zm-45.97,128.25c7.14-4.26,12.21-10.54,15.21-18.84v-19.01h-36.99c-22.12,0-33.19,7.26-33.19,21.78,0,6.91,2.71,12.39,8.12,16.42,5.41,4.04,12.84,6.05,22.3,6.05s17.4-2.13,24.54-6.4Z"/>
        <path class="cls-1" d="M1672.36,183.97c10.94-4.61,23.56-6.91,37.85-6.91v49.78c-5.99-.46-10.02-.69-12.1-.69-15.44,0-27.54,4.32-36.3,12.96-8.76,8.64-13.14,21.6-13.14,38.89v87.8h-53.93V179.82h51.51v24.54c6.45-8.99,15.15-15.78,26.1-20.39Z"/>
        <path class="cls-1" d="M2036.01,197.62c13.71,13.71,20.57,34.28,20.57,61.7v106.47h-53.93v-98.17c0-14.75-3.06-25.75-9.16-33.01-6.11-7.26-14.81-10.89-26.1-10.89-12.68,0-22.7,4.09-30.07,12.27-7.38,8.18-11.06,20.34-11.06,36.47v93.33h-53.93v-98.17c0-29.26-11.75-43.9-35.26-43.9-12.44,0-22.36,4.09-29.73,12.27-7.38,8.18-11.06,20.34-11.06,36.47v93.33h-53.93V179.82h51.51v21.43c6.91-7.83,15.38-13.83,25.41-17.98,10.03-4.15,21.03-6.22,33.01-6.22,13.14,0,25,2.59,35.61,7.78,10.6,5.19,19.13,12.74,25.58,22.64,7.61-9.68,17.22-17.17,28.86-22.47,11.64-5.3,24.37-7.95,38.2-7.95,23.27,0,41.77,6.86,55.48,20.57Z"/>
        <path class="cls-1" d="M2246.36,197.62c15.44,13.71,23.16,34.4,23.16,62.05v106.12h-50.47v-23.16c-10.14,17.28-29.04,25.93-56.69,25.93-14.29,0-26.68-2.42-37.16-7.26-10.49-4.84-18.49-11.52-24.03-20.05-5.53-8.52-8.3-18.2-8.3-29.04,0-17.28,6.51-30.88,19.53-40.79,13.02-9.91,33.13-14.86,60.32-14.86h42.86c0-11.75-3.58-20.79-10.72-27.14-7.15-6.34-17.86-9.51-32.15-9.51-9.91,0-19.65,1.56-29.21,4.67-9.57,3.11-17.69,7.32-24.37,12.62l-19.36-37.68c10.14-7.14,22.3-12.67,36.47-16.59,14.17-3.92,28.75-5.88,43.73-5.88,28.8,0,50.93,6.86,66.37,20.57Zm-45.97,128.25c7.14-4.26,12.21-10.54,15.21-18.84v-19.01h-36.99c-22.12,0-33.19,7.26-33.19,21.78,0,6.91,2.71,12.39,8.12,16.42,5.41,4.04,12.84,6.05,22.3,6.05s17.4-2.13,24.54-6.4Z"/>
      </g>
    </g>
  </g>
</svg>