<svg xmlns="http://www.w3.org/2000/svg" xmlns:xlink="http://www.w3.org/1999/xlink" width="285" height="102" viewBox="0 0 285 102">
  <defs>
    <filter id="Rectangle_516" x="0" y="0" width="285" height="102" filterUnits="userSpaceOnUse">
      <feOffset dy="3" input="SourceAlpha"/>
      <feGaussianBlur stdDeviation="3" result="blur"/>
      <feFlood flood-opacity="0.161"/>
      <feComposite operator="in" in2="blur"/>
      <feComposite in="SourceGraphic"/>
    </filter>
    <clipPath id="clip-path">
      <rect id="Rectangle_312" data-name="Rectangle 312" width="207.94" height="49.109" fill="none"/>
    </clipPath>
  </defs>
  <g id="Group_363" data-name="Group 363" transform="translate(-1521 -7128)">
    <g transform="matrix(1, 0, 0, 1, 1521, 7128)" filter="url(#Rectangle_516)">
      <rect id="Rectangle_516-2" data-name="Rectangle 516" width="267" height="84" rx="6" transform="translate(9 6)" fill="#fff"/>
    </g>
    <g id="Group_348" data-name="Group 348" transform="translate(1559.53 7151.445)">
      <g id="Group_347" data-name="Group 347" clip-path="url(#clip-path)">
        <path id="Path_492" data-name="Path 492" d="M.364,91.049c-.44-.452-.344-1.028-.344-1.57Q.013,72,.024,54.514c0-.532-.155-1.119.32-1.564L19.46,71.979.364,91.049" transform="translate(0 -48.112)" fill="#3d65ac"/>
        <path id="Path_493" data-name="Path 493" d="M22.884,31.971,3.768,12.941a4.918,4.918,0,0,1,7.218-3.435c2.059,1.054,4.021,2.3,6.026,3.454q7.321,4.233,14.639,8.472c.387.225.738.512,1.1.771-3.215,3.264-6.6,6.36-9.66,9.773a.951.951,0,0,1-.211-.006" transform="translate(-3.424 -8.103)" fill="#459d36"/>
        <path id="Path_494" data-name="Path 494" d="M23.085,261.223a.952.952,0,0,0,.212.006c3.078,3.409,6.443,6.536,9.686,9.784q-7.67,4.483-15.341,8.964c-2.083,1.214-4.151,2.459-6.281,3.586a4.933,4.933,0,0,1-7.371-3.271l19.1-19.07" transform="translate(-3.625 -237.356)" fill="#e01924"/>
        <path id="Path_495" data-name="Path 495" d="M224.992,173.879c-3.243-3.247-6.608-6.375-9.686-9.784,3.061-3.414,6.446-6.509,9.66-9.773a88.153,88.153,0,0,1,9.927,5.71,4.963,4.963,0,0,1,.028,8.137,94.668,94.668,0,0,1-9.929,5.71" transform="translate(-195.634 -140.222)" fill="#f6a300"/>
        <path id="Path_496" data-name="Path 496" d="M628.762,213.706c1.262,0,2.534.093,3.785-.026,1.225-.117,1.643.25,1.667,1.508.082,4.251-1.328,7.776-5.131,9.892A11.957,11.957,0,0,1,613.094,208.3a11.921,11.921,0,0,1,16.736-3.265c.456.327,1.716.473.976,1.571-1.089,1.619-1.714,1.809-2.87,1.026a8.472,8.472,0,0,0-11.5,1.8,8.785,8.785,0,0,0,1.145,11.86,8.56,8.56,0,0,0,11.428-.2,4.444,4.444,0,0,0,.7-.791c.577-.946,1.387-2.056.938-3.042-.347-.763-1.642-.228-2.51-.283a18.008,18.008,0,0,0-3.178.008c-1.418.163-1.92-.233-1.857-1.754.05-1.227.285-1.67,1.572-1.55,1.352.126,2.725.028,4.088.028" transform="translate(-555.265 -184.363)" fill="#1a1818"/>
        <path id="Path_497" data-name="Path 497" d="M1254.521,308.741c-2.994,2.3-5.783,2.124-8.438.159a7.212,7.212,0,0,1-2.85-7.747,7.312,7.312,0,0,1,6.1-5.92,4.9,4.9,0,0,1,1.5-.072,5.657,5.657,0,0,1,3.156,1.3,3.089,3.089,0,0,1,2.678-.839c.782,0,1.024.2,1.016,1.005-.041,4.476.031,8.953-.044,13.428-.062,3.656-2.066,6.215-5.278,7a7.549,7.549,0,0,1-8.249-3.342c-.438-.725-.369-1.054.454-1.391,1.15-.471,2.012-.958,2.954.555.955,1.533,2.732,1.6,4.372,1.121a3.418,3.418,0,0,0,2.474-3.259c.053-.544.081-1.091.146-2m-8.088-6.035a4.388,4.388,0,0,0,4.22,4.723c2.255-.014,4.006-2,4.022-4.565.016-2.656-1.742-4.721-4.017-4.718a4.4,4.4,0,0,0-4.225,4.56" transform="translate(-1129.453 -268.168)" fill="#1a1818"/>
        <path id="Path_498" data-name="Path 498" d="M1717.95,223.047c0-3.372.029-6.744-.02-10.115-.012-.859.239-1.1,1.091-1.079,2.422.058,4.848-.013,7.27.038a6.937,6.937,0,1,1,.134,13.873,39.906,39.906,0,0,1-4.088,0c-.9-.049-1.084.282-1.062,1.105.055,2.062-.044,4.129.044,6.188.044,1.036-.32,1.242-1.273,1.221-2.095-.046-2.1,0-2.1-2.022v-9.209m6.258-8.114a19.1,19.1,0,0,1-1.939-.013c-.829-.09-1.011.267-.993,1.025.046,1.9.008,3.808.02,5.712,0,.462-.18,1.081.655,1.04,1.7-.084,3.422.222,5.105-.2a3.794,3.794,0,0,0,2.874-3.6,3.865,3.865,0,0,0-2.714-3.728,10.89,10.89,0,0,0-3.009-.231" transform="translate(-1560.968 -192.496)" fill="#1a1818"/>
        <path id="Path_499" data-name="Path 499" d="M1973.064,307.9c-2.481,2.367-5.782,2.582-8.108.6a4.4,4.4,0,0,1-1.535-4.742c.6-2.238,2.409-3.254,4.543-3.691a7.994,7.994,0,0,1,3.894.123c.382.113.854.384,1.095-.038.227-.4-.005-.859-.307-1.244a3.984,3.984,0,0,0-5.445-.4c-.607.526-2.847.255-3.276-.409-.2-.3.008-.552.157-.813,1.084-1.906,4.286-3.11,6.97-2.611,2.937.546,5.083,2.362,5.246,4.855.2,3.057.108,6.133.133,9.2,0,.229.078.583-.261.611-.7.058-1.415-.012-2.113.066-1.3.146-.527-1-.995-1.509m-3.842-.989a4.145,4.145,0,0,0,3.533-2.182c.65-1.236.487-1.646-.888-1.945a6.538,6.538,0,0,0-3.131-.016c-1.178.322-2.16.9-2.089,2.335.05,1.012,1.224,1.808,2.575,1.807" transform="translate(-1783.868 -267.648)" fill="#1a1818"/>
        <path id="Path_500" data-name="Path 500" d="M1075.2,302.7a7.659,7.659,0,1,1-7.677-7.614,7.576,7.576,0,0,1,7.677,7.614m-11.924-.021a4.439,4.439,0,0,0,4.265,4.7,4.651,4.651,0,0,0,.107-9.269,4.411,4.411,0,0,0-4.372,4.572" transform="translate(-963.04 -268.127)" fill="#1a1818"/>
        <path id="Path_501" data-name="Path 501" d="M884.23,295.084a7.652,7.652,0,1,1-7.766,7.577,7.63,7.63,0,0,1,7.766-7.577m4.272,7.666a4.35,4.35,0,1,0-4.4,4.626,4.54,4.54,0,0,0,4.4-4.626" transform="translate(-796.383 -268.123)" fill="#1a1818"/>
        <path id="Path_502" data-name="Path 502" d="M1496.6,307.061a7.487,7.487,0,0,1-9.138,2.895,7.7,7.7,0,0,1-4.629-8.443c.856-4.542,4.766-7.19,8.947-6.026,2.507.7,3.875,2.567,4.831,4.827.307.727-.249.827-.72,1.022-2.736,1.132-5.442,2.339-8.212,3.381-1.154.434-.936.85-.328,1.52,1.33,1.464,4.047,1.844,5.464.36,1.3-1.361,2.122-.842,3.167.038.191.161.411.286.617.427m-10.5-4.588a2.434,2.434,0,0,0,.52-.072c1.761-.719,3.526-1.429,5.268-2.191.287-.125.785-.083.823-.536s-.355-.684-.688-.9a3.336,3.336,0,0,0-3.7-.1,4.021,4.021,0,0,0-2.224,3.8" transform="translate(-1347.241 -268.24)" fill="#1a1818"/>
        <path id="Path_503" data-name="Path 503" d="M2113.566,321.352c1.054-2.352,1.958-4.463,2.948-6.532a2.227,2.227,0,0,0,.021-2.088c-1.707-3.785-3.354-7.6-5.02-11.4-.134-.307-.253-.62-.461-1.132,1.1,0,2.039.027,2.979-.009.7-.026.773.5.961.953q1.573,3.815,3.154,7.627a1.534,1.534,0,0,0,.615.95c1.093-2.744,2.168-5.477,3.275-8.2.194-.476.146-1.23.837-1.29a15.821,15.821,0,0,1,3.021.023c.4.043.138.477.025.735q-4.289,9.839-8.568,19.681a.951.951,0,0,1-1.014.686c-.848-.025-1.7-.007-2.774-.007" transform="translate(-1918.174 -272.746)" fill="#1a1818"/>
        <path id="Path_504" data-name="Path 504" d="M1906.475,222.971c0-3.323.037-6.646-.023-9.968-.018-.973.229-1.279,1.237-1.252,2.139.057,2.141,0,2.141,2.157,0,6.293-.07,12.588.046,18.879.032,1.72-.94,1.317-1.884,1.389-1.051.08-1.6-.062-1.556-1.389.118-3.268.039-6.544.039-9.816" transform="translate(-1732.249 -192.402)" fill="#1a1818"/>
        <path id="Path_505" data-name="Path 505" d="M1431.99,222.958c0,3.313-.028,6.627.018,9.94.013.915-.138,1.324-1.2,1.3-2.173-.055-2.175.014-2.175-2.1,0-6.326.061-12.652-.044-18.976-.026-1.558.789-1.324,1.737-1.359,1.035-.038,1.768-.083,1.708,1.407-.131,3.258-.041,6.525-.041,9.788" transform="translate(-1298.06 -192.404)" fill="#1a1818"/>
        <path id="Path_506" data-name="Path 506" d="M624.594,7.009c-1,0-1.946-.014-2.9.005-.545.011-.964.024-.94-.756.021-.688.167-1,.93-.966a32.488,32.488,0,0,0,3.483,0c1.125-.067,1.4.443,1.3,1.453a5.31,5.31,0,0,1-5.874,4.967,5.768,5.768,0,0,1-5.422-6.218,5.83,5.83,0,0,1,9.042-4.486c.358.248,1.2.469.608,1.22-.424.54-.756.981-1.622.275a3.961,3.961,0,0,0-5.11.455,4.37,4.37,0,0,0-.348,5.411,4.016,4.016,0,0,0,4.988,1.276,3.064,3.064,0,0,0,1.858-2.636" transform="translate(-558.95 0)" fill="#1a1818"/>
        <path id="Path_507" data-name="Path 507" d="M1288.645,6.161c0,2.655-.009,4.942.006,7.229,0,.641.054,1.141-.9,1.124-.933-.017-.912-.507-.909-1.156.013-2.92-.011-5.84.024-8.76.005-.427-.36-1.156.383-1.247s1.539-.329,2.1.64c1.334,2.29,2.794,4.508,4.45,7.149V4.534c0-.632-.188-1.259.908-1.27,1.126-.011.9.655.9,1.266.007,2.92.019,5.84-.015,8.76,0,.409.374,1.1-.475,1.178-.636.055-1.224.11-1.667-.644-1.372-2.335-2.847-4.611-4.284-6.909-.094-.15-.2-.291-.524-.754" transform="translate(-1169.213 -2.962)" fill="#1a1818"/>
        <path id="Path_508" data-name="Path 508" d="M1156.544,6.539a5.667,5.667,0,0,1-5.711,5.762,5.778,5.778,0,0,1-5.775-5.91,5.788,5.788,0,0,1,5.766-5.76,5.7,5.7,0,0,1,5.72,5.907m-1.809-.121A3.775,3.775,0,0,0,1150.81,2.4a3.893,3.893,0,0,0-3.948,4.053,4,4,0,0,0,4.063,4.141,3.9,3.9,0,0,0,3.81-4.178" transform="translate(-1040.437 -0.574)" fill="#1a1818"/>
        <path id="Path_509" data-name="Path 509" d="M759.479,3.452c.806,0,1.613.02,2.419-.007.565-.019.927.014.921.773s-.284.954-.975.905c-.652-.046-1.31-.009-1.965-.009-2.078,0-2.311.314-1.988,2.439.08.529.294.668.774.658.907-.019,1.815.023,2.721-.013.618-.025.895.131.905.824.011.717-.3.838-.9.806-.7-.038-1.421.068-2.114-.026-1.143-.155-1.385.268-1.42,1.382-.042,1.368.339,1.88,1.722,1.687.741-.1,1.511.018,2.264-.029.688-.043.976.139.977.9s-.3.915-.981.9c-1.561-.039-3.127-.068-4.685.009-.919.045-1.062-.327-1.051-1.127.041-2.963.068-5.927-.011-8.888-.028-1.046.34-1.286,1.275-1.194.7.068,1.41.014,2.115.014" transform="translate(-687.006 -3.108)" fill="#1a1818"/>
        <path id="Path_510" data-name="Path 510" d="M1017.961,9.925c0-1.108-.067-2.22.019-3.321.081-1.033-.223-1.507-1.313-1.338-.345.053-.708-.016-1.059.012-.7.054-.659-.4-.683-.877-.026-.545.082-.819.727-.808,2.07.036,4.142.027,6.212,0,.6-.006.926.1.9.82-.02.668-.28.83-.9.873-2.129.147-2.127.172-2.127,2.3,0,2.014,0,4.027,0,6.041,0,.619.083,1.168-.879,1.19-.942.022-.919-.464-.907-1.115.023-1.258.007-2.517.007-3.776" transform="translate(-922.191 -3.263)" fill="#1a1818"/>
        <path id="Path_511" data-name="Path 511" d="M843.538,9.928c0-1.155-.057-2.313.018-3.463.06-.925-.251-1.3-1.18-1.175-.346.046-.706-.017-1.057.011-.732.058-.784-.381-.805-.949-.024-.639.3-.74.83-.736,2.065.016,4.131.021,6.2,0,.557-.006.827.118.792.743-.031.545-.028.9-.773.963-2.268.186-2.265.228-2.265,2.464,0,2.008-.011,4.016.007,6.024.005.6.01,1.047-.842,1.024-.759-.019-.946-.308-.929-.989.033-1.3.01-2.61.009-3.916" transform="translate(-763.717 -3.283)" fill="#1a1818"/>
        <path id="Path_512" data-name="Path 512" d="M982.523,9.122c0,1.555-.009,3.109,0,4.664.005.552-.026.94-.779.948s-.929-.283-.923-.969c.026-3.109.02-6.219,0-9.328,0-.574.053-.918.787-.923s.944.232.922.944c-.048,1.553-.015,3.109-.015,4.664" transform="translate(-891.21 -3.193)" fill="#1a1818"/>
      </g>
    </g>
  </g>
</svg>
