<svg xmlns="http://www.w3.org/2000/svg" xmlns:xlink="http://www.w3.org/1999/xlink" width="285" height="102" viewBox="0 0 285 102">
  <defs>
    <filter id="Rectangle_517" x="0" y="0" width="285" height="102" filterUnits="userSpaceOnUse">
      <feOffset dy="3" input="SourceAlpha"/>
      <feGaussianBlur stdDeviation="3" result="blur"/>
      <feFlood flood-opacity="0.161"/>
      <feComposite operator="in" in2="blur"/>
      <feComposite in="SourceGraphic"/>
    </filter>
    <clipPath id="clip-path">
      <rect id="Rectangle_311" data-name="Rectangle 311" width="211.512" height="56.453" fill="none"/>
    </clipPath>
  </defs>
  <g id="Group_364" data-name="Group 364" transform="translate(-1521 -7234)">
    <g transform="matrix(1, 0, 0, 1, 1521, 7234)" filter="url(#Rectangle_517)">
      <rect id="Rectangle_517-2" data-name="Rectangle 517" width="267" height="84" rx="6" transform="translate(9 6)" fill="#fff"/>
    </g>
    <g id="Group_346" data-name="Group 346" transform="translate(1559.53 7254.131)">
      <g id="Group_345" data-name="Group 345" clip-path="url(#clip-path)">
        <path id="Path_469" data-name="Path 469" d="M0,132.313c-.006-4.08.605-7.163,2.389-9.91a11.825,11.825,0,0,1,9.4-5.663,10.708,10.708,0,0,1,4.7.938q1.185.455,2.371.908a4.133,4.133,0,0,0,2.982,0c1.4-.507,2.764-1.115,4.2-1.538a11.781,11.781,0,0,1,12.543,4.05c.243.322.211.453-.121.68a10.805,10.805,0,0,0,1.228,18.872c.412.2.425.371.3.754a30.291,30.291,0,0,1-4.495,8.213,19.156,19.156,0,0,1-1.795,2.147,6.469,6.469,0,0,1-7.6,1.556,16.644,16.644,0,0,0-3.451-1.185,9.823,9.823,0,0,0-5.249.546,21.234,21.234,0,0,1-3.4,1.2A5.542,5.542,0,0,1,8.915,152.3a26.059,26.059,0,0,1-5.147-6.845A29.378,29.378,0,0,1,0,132.313" transform="translate(0 -104.689)" fill="#1a1818"/>
        <path id="Path_470" data-name="Path 470" d="M812.222,309.852v.622c0,2.919-.01,5.838.011,8.756,0,.416-.125.5-.507.487-1.036-.025-2.074-.04-3.108.005-.482.021-.539-.149-.538-.568q.014-10.233-.007-20.466c0-1.544-.068-3.087-.127-4.63-.013-.339.037-.472.42-.46.933.031,1.869.027,2.8,0,.345-.01.429.113.445.429.041.812.115,1.621.175,2.415a.139.139,0,0,0,.194-.074c2.285-3.915,9.246-4.695,12.339.4a10.068,10.068,0,0,1,1.421,4.459,12.321,12.321,0,0,1-1.287,7.246,7.8,7.8,0,0,1-9.075,3.8,5.158,5.158,0,0,1-2.888-2.043l-.27-.384m.008-6.8c0,.611-.017,1.222,0,1.832a4.57,4.57,0,0,0,3.331,4.315,4.35,4.35,0,0,0,5.154-2.367,8.925,8.925,0,0,0,.163-7.624,4.225,4.225,0,0,0-2.47-2.427,4.528,4.528,0,0,0-5.885,2.948,10.358,10.358,0,0,0-.3,3.323" transform="translate(-725.498 -263.272)" fill="#1a1818"/>
        <path id="Path_471" data-name="Path 471" d="M1021.75,310.087V312c0,2.461-.006,4.922.007,7.382,0,.324-.071.429-.413.422-1.07-.024-2.141-.026-3.211,0-.388.01-.5-.081-.5-.49q.029-4.506.008-9.012c-.02-4.921.074-9.843-.084-14.764-.008-.254-.01-.509-.021-.763-.045-1.08-.046-1.08,1.065-1.08.68,0,1.36.019,2.039-.008.353-.014.5.049.51.453.022.8.123,1.589.193,2.383,0,.01.024.017.039.027.087.024.116-.05.147-.1,2.274-3.839,8.828-4.516,11.936-.171a10.376,10.376,0,0,1,1.868,5.914,11.3,11.3,0,0,1-1.869,7.193,7.753,7.753,0,0,1-8.559,2.977,5.852,5.852,0,0,1-3.155-2.277m0-6.876a21.571,21.571,0,0,0,.082,2.313,4.525,4.525,0,0,0,3.268,3.763,4.316,4.316,0,0,0,4.9-1.925,8.7,8.7,0,0,0,.535-7.78,4.3,4.3,0,0,0-4.48-2.992,4.662,4.662,0,0,0-4.123,3.714,13.249,13.249,0,0,0-.184,2.907" transform="translate(-913.691 -263.361)" fill="#1a1818"/>
        <path id="Path_472" data-name="Path 472" d="M581.579,252.425c-.595,0-1.191-.021-1.784.008-.316.016-.434-.1-.523-.388-.7-2.244-1.429-4.482-2.128-6.728a.543.543,0,0,0-.626-.463q-3.722.029-7.444,0a.511.511,0,0,0-.592.443c-.659,2.223-1.344,4.438-2,6.663-.1.347-.232.487-.618.476-1.087-.031-2.176-.027-3.263,0-.427.01-.547-.041-.393-.513,1.324-4.053,2.618-8.117,3.924-12.176q2.029-6.306,4.057-12.613a.546.546,0,0,1,.632-.461c1.41.025,2.821.019,4.232,0a.464.464,0,0,1,.537.378q4.021,12.464,8.066,24.921c.127.39.061.486-.347.461-.576-.035-1.155-.009-1.733-.009m-8.766-22.319c-.094.129-.136.163-.145.2-.813,3.727-2.014,7.341-3.19,10.962-.119.365-.033.419.312.417,1.971-.013,3.943-.024,5.914.006.508.008.541-.122.4-.557a112.729,112.729,0,0,1-3.29-11.032" transform="translate(-504.784 -203.54)" fill="#1a1818"/>
        <path id="Path_473" data-name="Path 473" d="M1271.363,244.685a11.2,11.2,0,0,0,3.948,1.467,8.886,8.886,0,0,0,4.285-.162,3.5,3.5,0,0,0,2.588-2.854,3.65,3.65,0,0,0-1.4-3.654,11.134,11.134,0,0,0-3.095-1.622,16.072,16.072,0,0,1-4.234-2.281,6.656,6.656,0,0,1,1.173-11.264,8.9,8.9,0,0,1,3.3-.979,14.184,14.184,0,0,1,6.95.871c.393.165.52.339.353.783-.291.775-.512,1.577-.732,2.376-.1.351-.18.44-.562.26a9.291,9.291,0,0,0-6.243-.767,3.226,3.226,0,0,0-2.583,4.049,3.385,3.385,0,0,0,1.423,1.921,14.377,14.377,0,0,0,3.021,1.555,21.06,21.06,0,0,1,3.989,2.108c4.088,2.793,3.846,9.789-1.231,12.17a11.837,11.837,0,0,1-5.04,1.05,13.337,13.337,0,0,1-6.093-1.164c-.784-.385-.786-.386-.554-1.224.24-.864.485-1.727.741-2.641" transform="translate(-1140.843 -200.465)" fill="#1a1818"/>
        <path id="Path_474" data-name="Path 474" d="M1600.736,302.843a10.514,10.514,0,0,1-1.387,5.664c-2,3.307-5.059,4.5-8.792,4.231-5.026-.368-7.554-4.441-7.911-8.055a11.733,11.733,0,0,1,.571-5.415,8.4,8.4,0,0,1,7.582-5.793c3.848-.334,7.075,1.1,8.872,4.562a10.1,10.1,0,0,1,1.065,4.807m-4.282.178a8.141,8.141,0,0,0-1.244-4.594,4.171,4.171,0,0,0-7.141-.018,8.728,8.728,0,0,0-.11,9.235,4.176,4.176,0,0,0,7.266.029,8.627,8.627,0,0,0,1.229-4.651" transform="translate(-1421.074 -263.486)" fill="#1a1818"/>
        <path id="Path_475" data-name="Path 475" d="M1921.159,303.156c-1.886,0-3.772.015-5.657-.011-.425-.006-.491.129-.47.512a5.154,5.154,0,0,0,4.942,4.952,13.232,13.232,0,0,0,5.512-.708c.3-.109.4-.055.464.252.146.73.318,1.455.49,2.18.052.215.02.34-.212.424a14.359,14.359,0,0,1-9.577.45c-3.245-1.075-4.965-3.535-5.468-6.84a11.782,11.782,0,0,1,.9-6.956,8.411,8.411,0,0,1,11.043-4.281,7.343,7.343,0,0,1,4.021,5.087,12.608,12.608,0,0,1,.32,4.393c-.028.376-.123.573-.6.563-1.9-.04-3.805-.016-5.708-.016m-1.855-2.931h3.109c1.28,0,1.28,0,1.093-1.27a4.01,4.01,0,0,0-7.37-1.813,6.4,6.4,0,0,0-1.084,2.656c-.061.323.017.442.378.436,1.291-.023,2.583-.009,3.874-.009" transform="translate(-1716.012 -262.567)" fill="#1a1818"/>
        <path id="Path_476" data-name="Path 476" d="M1455.655,265.269c0,1.527-.009,3.054.007,4.581a4.026,4.026,0,0,0,.16,1,2.125,2.125,0,0,0,2.331,1.756,6.7,6.7,0,0,0,1.418-.123c.226-.049.29.009.295.236q.03,1.272.095,2.543a.324.324,0,0,1-.285.392,8.828,8.828,0,0,1-4.825.062,4.408,4.408,0,0,1-3.067-3.767,14.239,14.239,0,0,1-.209-2.633c0-2.9,0-5.8.01-8.705,0-.344-.064-.473-.436-.454-.644.034-1.291-.006-1.936.016-.3.01-.369-.1-.363-.376q.025-1.17,0-2.341c-.006-.284.071-.387.368-.378.645.02,1.292-.01,1.936.013.324.011.442-.07.432-.417-.026-.882,0-1.765-.016-2.647a.387.387,0,0,1,.333-.454q1.683-.489,3.355-1.012c.31-.1.379-.014.376.289-.012,1.273.007,2.545-.013,3.818-.005.343.1.429.431.424,1.24-.018,2.48,0,3.72-.015.307,0,.409.064.4.388-.026.763-.024,1.527,0,2.29.01.323-.067.43-.411.423-1.24-.022-2.48,0-3.72-.017-.341-.006-.42.1-.416.424.017,1.561.008,3.122.008,4.683Z" transform="translate(-1301.004 -226.754)" fill="#1a1818"/>
        <path id="Path_477" data-name="Path 477" d="M1798.692,297.306a7.283,7.283,0,0,1,1.025-1.859,5.089,5.089,0,0,1,4.6-2.012c.328.023.469.121.459.487q-.041,1.527,0,3.056c.01.378-.1.449-.461.4a4.141,4.141,0,0,0-3.944,1.249,5.343,5.343,0,0,0-1.283,3.612q-.035,4.787,0,9.575c0,.436-.083.58-.549.562-1.035-.041-2.074-.036-3.11,0-.422.014-.5-.129-.494-.514.03-3.735.039-7.47.058-11.2.011-2.156-.028-4.312-.152-6.465-.016-.284.037-.387.341-.381.952.017,1.9.019,2.855,0,.311-.007.411.084.418.4.024,1.027.077,2.053.119,3.079l.123.024" transform="translate(-1611.682 -263.478)" fill="#1a1818"/>
        <path id="Path_478" data-name="Path 478" d="M205.316,1.03a10.7,10.7,0,0,1-7.629,10.112,10.623,10.623,0,0,1-1.708.25c-.454.045-.627-.121-.636-.577a9.223,9.223,0,0,1,.609-3.533A11,11,0,0,1,204.623.064c.668-.131.672-.114.692.559,0,.136,0,.271,0,.407" transform="translate(-175.407 0)" fill="#1a1818"/>
        <path id="Path_479" data-name="Path 479" d="M585.142,18.236c0-1.917.008-3.833-.007-5.75,0-.336.078-.458.436-.5a16.121,16.121,0,0,1,5.669.1,5.3,5.3,0,0,1,4.281,5.129,8.25,8.25,0,0,1-.516,3.745,5.775,5.775,0,0,1-4.573,3.466,18.569,18.569,0,0,1-4.973.107c-.331-.024-.32-.208-.32-.443q.006-2.926,0-5.852m2.031,0c0,1.442.011,2.884-.008,4.326,0,.33.087.455.42.444.509-.018,1.02.017,1.528-.008a4.152,4.152,0,0,0,4.019-3.02,6.873,6.873,0,0,0,.12-3.472,3.6,3.6,0,0,0-1.979-2.623,7.024,7.024,0,0,0-3.842-.415c-.308.029-.259.243-.259.443q0,2.163,0,4.326" transform="translate(-525.425 -10.582)" fill="#1a1818"/>
        <path id="Path_480" data-name="Path 480" d="M1351.991,17.675a3.13,3.13,0,0,1-1.711,1.493,3.634,3.634,0,0,1-4.61-2.113,5.879,5.879,0,0,1,.173-5.117,3.745,3.745,0,0,1,4.425-1.947,2.725,2.725,0,0,1,1.457.958c.157-.134.081-.314.082-.467.007-1.409.011-2.818,0-4.226,0-.3.058-.432.39-.409.523.036,1.21-.168,1.529.093.336.275.1.987.1,1.508.035,3.768-.062,7.537.071,11.3.012.345-.09.448-.417.41-.448-.052-1.035.194-1.311-.108-.234-.257-.125-.825-.18-1.378m-.158-3.119c-.025-.45-.022-.876-.078-1.294a2.146,2.146,0,0,0-3.855-.959,4.3,4.3,0,0,0-.141,4.384,2.152,2.152,0,0,0,2.267,1.008,2.217,2.217,0,0,0,1.722-1.849c.062-.434.06-.877.085-1.292" transform="translate(-1207.902 -5.212)" fill="#1a1818"/>
        <path id="Path_481" data-name="Path 481" d="M822.015,53.921c.549-2.241,1.3-4.419,1.906-6.637a.584.584,0,0,1,.7-.513c1.122.033,1.127.009,1.428,1.075.546,1.938,1.181,3.852,1.585,5.829.019.092.059.18.12.362.4-2.388,1.073-4.609,1.63-6.859.077-.312.191-.418.507-.4.506.025,1.015.007,1.589.007-.316,1.006-.62,1.968-.921,2.931-.6,1.922-1.207,3.842-1.794,5.768-.092.3-.2.457-.55.427-.471-.041-1.075.145-1.384-.085s-.336-.85-.47-1.3c-.519-1.77-1.111-3.52-1.466-5.332a.147.147,0,0,0-.142.128,63.4,63.4,0,0,1-1.826,6.285.355.355,0,0,1-.427.3c-.507-.022-1.138.154-1.485-.086-.319-.221-.339-.88-.478-1.35-.715-2.418-1.417-4.84-2.149-7.253-.12-.394-.021-.469.341-.436.535.048,1.215-.221,1.568.11.324.3.319.967.437,1.477.424,1.848.908,3.682,1.283,5.554" transform="translate(-734.833 -41.954)" fill="#1a1818"/>
        <path id="Path_482" data-name="Path 482" d="M1870.711,11.3a3.123,3.123,0,0,1,5.724,1.277,7.22,7.22,0,0,1,.1,1.113c.011,1.68,0,3.361.012,5.041,0,.314-.052.458-.408.432-.522-.039-1.209.171-1.528-.089s-.094-.984-.1-1.5c-.015-1.154,0-2.309-.006-3.463a5.074,5.074,0,0,0-.075-1.013c-.21-1.021-.74-1.538-1.64-1.572a1.952,1.952,0,0,0-2.058,1.47,3.348,3.348,0,0,0-.095.908c0,1.613-.008,3.225.009,4.838,0,.325-.071.45-.416.424a10.936,10.936,0,0,0-1.274,0c-.259.011-.353-.062-.353-.338q.012-6.315,0-12.629c0-.268.082-.36.349-.347.54.026,1.23-.168,1.58.1s.094.982.1,1.5c.016,1.256.008,2.512.011,3.768,0,.012.017.024.065.089" transform="translate(-1677.926 -5.21)" fill="#1a1818"/>
        <path id="Path_483" data-name="Path 483" d="M1134.287,50.174c.056-1.939.685-3.528,2.464-4.363,2.557-1.2,6.248-.193,6.455,3.907a4.807,4.807,0,0,1-1.359,3.911,4.406,4.406,0,0,1-4.821.93,4.106,4.106,0,0,1-2.686-3.64c-.037-.268-.04-.541-.053-.746m2.078-.09a3.809,3.809,0,0,0,.669,2.405,2.03,2.03,0,0,0,3.372,0,4.428,4.428,0,0,0,.062-4.712,2.061,2.061,0,0,0-3.468,0,3.877,3.877,0,0,0-.634,2.314" transform="translate(-1018.541 -40.712)" fill="#1a1818"/>
        <path id="Path_484" data-name="Path 484" d="M710.935,50.248c0-2.259,1.1-3.991,2.988-4.524,3.385-.957,5.815,1.128,5.9,4.175a4.92,4.92,0,0,1-1.247,3.753,4.388,4.388,0,0,1-4.878,1.061,4.133,4.133,0,0,1-2.754-3.753,5.614,5.614,0,0,1,0-.712m6.8-.059a4.157,4.157,0,0,0-.652-2.282,2.067,2.067,0,0,0-3.444-.042,4.526,4.526,0,0,0-.021,4.722,2.039,2.039,0,0,0,3.434-.008,4.192,4.192,0,0,0,.682-2.39" transform="translate(-638.38 -40.848)" fill="#1a1818"/>
        <path id="Path_485" data-name="Path 485" d="M1513.2,50.141c.05-1.943.714-3.6,2.618-4.382,2.84-1.163,6.133.206,6.3,3.995a4.853,4.853,0,0,1-1.265,3.8,4.385,4.385,0,0,1-4.884,1.033,4.114,4.114,0,0,1-2.725-3.717c-.03-.235-.029-.474-.043-.725m2.073,0a3.961,3.961,0,0,0,.635,2.316,2.044,2.044,0,0,0,3.437.015,4.467,4.467,0,0,0,.042-4.673,2.063,2.063,0,0,0-3.47-.022,3.909,3.909,0,0,0-.644,2.364" transform="translate(-1358.788 -40.728)" fill="#1a1818"/>
        <path id="Path_486" data-name="Path 486" d="M973.7,47.118a3.359,3.359,0,0,1,3.74-1.528,3.1,3.1,0,0,1,2.326,3.1c.064,1.933.023,3.869.039,5.8,0,.258-.1.312-.327.3a13,13,0,0,0-1.325,0c-.336.023-.387-.115-.387-.41,0-1.782.023-3.564-.028-5.345a1.77,1.77,0,0,0-2.507-1.76,1.924,1.924,0,0,0-1.269,1.759c-.063,1.219-.037,2.442-.046,3.663,0,.56-.022,1.121.007,1.68.018.349-.112.438-.434.409-.518-.047-1.214.216-1.507-.106-.258-.284-.082-.967-.086-1.474-.016-2.359.047-4.718-.072-7.075-.018-.365.047-.542.455-.482.427.063.974-.186,1.263.115.26.271.094.807.158,1.343" transform="translate(-872.651 -40.848)" fill="#1a1818"/>
        <path id="Path_487" data-name="Path 487" d="M1631.042,47.2a3.258,3.258,0,0,1,2.556-1.592,3.038,3.038,0,0,1,3.423,2.675,7.79,7.79,0,0,1,.1,1.214c.011,1.645-.01,3.291.016,4.936.006.4-.111.495-.482.462a6.49,6.49,0,0,0-1.12,0c-.356.03-.456-.08-.451-.443.021-1.577.008-3.155.009-4.733a4.351,4.351,0,0,0-.1-1.06,1.607,1.607,0,0,0-1.174-1.331,1.881,1.881,0,0,0-1.886.451,2.375,2.375,0,0,0-.706,1.792c0,1.629-.012,3.257.009,4.885,0,.367-.1.464-.454.438-.505-.037-1.185.167-1.476-.089-.334-.294-.1-.988-.1-1.507-.023-2.375-.021-4.749-.053-7.124,0-.348.09-.451.42-.419.436.042,1.019-.183,1.272.089s.139.829.2,1.355" transform="translate(-1462.887 -40.944)" fill="#1a1818"/>
        <path id="Path_488" data-name="Path 488" d="M1250.017,53.718a3.269,3.269,0,0,1-2.771,1.273,2.66,2.66,0,0,1-2.52-1.652,2.951,2.951,0,0,1,.664-3.148,4.978,4.978,0,0,1,2.908-1.2,9.621,9.621,0,0,1,1.269-.089c.265,0,.3-.1.3-.327a1.551,1.551,0,0,0-1.538-1.625,4.169,4.169,0,0,0-2.454.5c-.223.129-.293.1-.377-.14-.383-1.091-.351-1.167.77-1.529a6.521,6.521,0,0,1,2.87-.236c1.733.225,2.7,1.423,2.748,3.4.031,1.187.008,2.375.012,3.562a11.474,11.474,0,0,0,.092,1.929c.044.253-.008.39-.3.352a3.166,3.166,0,0,0-.407,0c-1.044,0-1.044,0-1.26-1.069m-.1-2.548c0-.221,0-.441,0-.662,0-.146-.014-.28-.21-.271a4.487,4.487,0,0,0-2.539.59,1.6,1.6,0,0,0-.505,1.877,1.28,1.28,0,0,0,1.446.78c1.161-.077,1.807-.9,1.807-2.314" transform="translate(-1117.533 -40.841)" fill="#1a1818"/>
        <path id="Path_489" data-name="Path 489" d="M1980.366,50.376c-.9,0-1.8.011-2.7-.006-.3-.006-.369.077-.327.372a2.511,2.511,0,0,0,2.438,2.3,6.226,6.226,0,0,0,2.511-.285c.253-.086.374-.083.448.239.261,1.14.28,1.147-.871,1.409a7.34,7.34,0,0,1-3.082.1,3.965,3.965,0,0,1-3.327-3.5,5.422,5.422,0,0,1,1.011-4.372,4.049,4.049,0,0,1,4.446-1.329,3.65,3.65,0,0,1,2.5,3.332c.23,1.735.2,1.739-1.522,1.739h-1.528m-.971-1.436h1.831c.154,0,.283.019.307-.218a2.089,2.089,0,0,0-1.519-2.135,2.209,2.209,0,0,0-2.621,1.932c-.071.319-.05.449.325.428.558-.031,1.118-.008,1.678-.008" transform="translate(-1773.795 -40.5)" fill="#1a1818"/>
        <path id="Path_490" data-name="Path 490" d="M1790.018,25.192c0,.682.01,1.309-.005,1.936-.006.242.064.325.312.317.526-.017,1.054.007,1.58-.01.265-.008.343.078.353.346.042,1.18.051,1.18-1.134,1.18-1.105,0-1.105,0-1.105,1.095q0,1.5,0,3c0,.2,0,.408.009.611.048,1.05.465,1.461,1.5,1.375.461-.038.593.074.6.538.019,1.018.047,1.018-.98,1.141-1.847.221-2.907-.6-3.073-2.441-.145-1.608-.046-3.223-.048-4.835,0-.4-.11-.511-.507-.5-.836.028-.837.006-.837-.8,0-.7,0-.744.693-.692.541.04.675-.138.653-.661-.043-1.024-.013-1.026.946-1.313.323-.1.65-.185,1.045-.3" transform="translate(-1604.363 -22.621)" fill="#1a1818"/>
        <path id="Path_491" data-name="Path 491" d="M1086.321,12.822c0,2.068-.006,4.137.006,6.205,0,.314-.052.455-.408.428-.521-.041-1.208.167-1.525-.094s-.1-.984-.1-1.5c-.008-3.747,0-7.494-.013-11.24,0-.367.066-.527.468-.487a5.442,5.442,0,0,0,1.119,0c.409-.044.465.127.462.486-.016,2.068-.008,4.137-.008,6.205" transform="translate(-973.579 -5.499)" fill="#1a1818"/>
      </g>
    </g>
  </g>
</svg>
